<?xml version="1.0" encoding="UTF-8"?> <svg xmlns="http://www.w3.org/2000/svg" id="Layer_1" data-name="Layer 1" viewBox="0 0 500 500"><defs><style>.cls-1{fill:#fff;}</style></defs><path class="cls-1" d="M343.55,270.71a15,15,0,0,0-8-9.15l-43.7-20.32,39.43-44.66a8.58,8.58,0,0,0-2.16-13.11l-66.26-38.09,0,0-42.57-24.74a15,15,0,0,0-15.89.51l-50,33.56a15,15,0,1,0,16.71,24.91l42.22-28.33,29.38,17.07-39.36,44.89A92.66,92.66,0,1,0,299.83,278l17,7.92,22,70.7a15,15,0,1,0,28.65-8.91ZM274,305.63a62.75,62.75,0,1,1-42.43-59.32l12,5.57A62.7,62.7,0,0,1,274,305.63Z"></path><circle class="cls-1" cx="347.82" cy="135.23" r="33.56"></circle></svg> 