<?xml version="1.0" encoding="utf-8"?>
<!-- Generator: Adobe Illustrator 24.0.0, SVG Export Plug-In . SVG Version: 6.00 Build 0)  -->
<svg version="1.1" id="Capa_3" xmlns="http://www.w3.org/2000/svg" xmlns:xlink="http://www.w3.org/1999/xlink" x="0px" y="0px"
	 viewBox="0 0 956 271.6" style="enable-background:new 0 0 956 271.6;" xml:space="preserve">
<style type="text/css">
	.st0{fill:#FFFFFF;}
</style>
<g>
	<path class="st0" d="M71.6,91.5c15.2,0,29.5,3.3,42.3,11.8c2.4,1.6,4.8,2.7,7.8,0.7c2.3-1.5,2.9,0.7,3.1,2.5
		c0.5,6,0.8,12.1,1.2,18.2c0.1,1.9,0.4,3.8,0.2,5.8c-0.1,1.1-0.8,2.1-1.3,3.2c-1-0.7-2.3-1.2-2.9-2.2c-2.8-4.4-5.1-9.2-8.2-13.4
		c-17-23.6-51.4-28.7-74-11c-10,7.8-15.1,18.5-17.4,30.7c-3.2,17-1.7,33.5,5.8,49.1C43,217.1,72.9,222,98.5,211.2
		c7.8-3.3,14.7-8.1,20-14.8c1.5-2,2.4-4.4,3.9-6.4c0.6-0.9,1.9-1.3,2.9-2c0.3,1,0.9,2.2,0.7,3.1c-1,5-1.9,9.9-3.4,14.8
		c-0.6,1.9-2.3,3.8-4,5c-7.1,4.9-15.2,7.4-23.6,8.9c-15.1,2.6-30.3,3.8-45.4-0.2c-25-6.7-42.2-27.6-44-53.4
		c-1.5-21.8,4.3-41.1,20-56.7C38.3,96.8,53.9,91.4,71.6,91.5"/>
	<path class="st0" d="M134.7,110.3v-3.2h468.1c-1.4-5.4-2.6-10.4-4-15.3c-0.6-2.1-0.3-5.1-3.6-5.6c0.2-0.8,0.3-2.3,0.7-2.4
		c3.6-1.1,7.2-2.2,10.9-2.7c1.5-0.2,3.6,0.9,4.6,2.1c2.8,3.2,3.8,7.1,3.5,11.3c-0.3,4.6-2.8,6.3-7.7,5.4c0.5,2.1,0.9,4,1.5,5.9
		c0.2,0.5,1,1.2,1.5,1.2c3.9,0.1,7.8,0.1,12.1,0.1c-0.3-1.6-0.5-2.7-0.7-3.9c-1.4-5.6-2.8-11.2-4.4-16.7c-0.5-1.9-0.4-4.5-3.3-4.8
		c0.1-0.9,0.1-2.4,0.5-2.5c3.6-1.1,7.2-2.2,10.9-2.8c1.4-0.2,3.5,0.7,4.5,1.8c3.1,3.6,4.6,7.8,2.5,12.6c-0.2,0.5-0.2,1.3,0,1.8
		c1.5,3,3.2,5.9,4.8,8.8c0.4,0.7,1,1.3,1.6,1.8c2.6,1.8,2.6,2.2-0.4,3.9c18.3,0,36.4,0,54.5-0.1c1.1,0,2.6-1.3,3.3-2.4
		c13.5-22.9,11-53.1-6.1-73.5c-0.6-0.7-0.9-1.7-0.8-2.9c10.2,10.6,15.8,23.3,17.2,37.8c1.4,14.5-1.9,28.1-9.3,41h98.3v3.4H612.1
		c1.6,2.4,0.4,3.1-1.8,3.5c-1.9,0.3-3.7,1-5.6,1.4c-0.7,0.1-1.4-0.2-2.1-0.3c0.2-0.7,0.3-1.4,0.5-2.1c0.2-0.7,0.6-1.3,1.1-2.4H134.7
		z M604.4,85c-0.3,0.2-0.6,0.3-0.9,0.5c0.9,3.5,1.8,7,2.8,10.5c0.1,0.4,1.2,0.9,1.4,0.7c0.5-0.3,1-1.1,0.9-1.6
		c-0.7-3-1.6-5.9-2.5-8.9C606,85.7,605,85.4,604.4,85 M623,80.3l-1,0.3c1,3.8,1.9,7.5,3,11.7C628.2,88.9,626.7,82.3,623,80.3
		 M626.7,94.2c-1.2,6.1,1.9,12.1,6.1,12.5C630.8,102.7,628.9,98.8,626.7,94.2"/>
	<path class="st0" d="M170.3,200.3c-1.2,0.2-2.3,0.7-3.5,0.7c-9.5,0.1-19,0.1-28.5,0c-1,0-2.1-0.7-3.1-1.1c0.8-0.8,1.6-1.8,2.5-2.5
		c0.6-0.4,1.6-0.4,2.3-0.6c3.7-1,4.8-2.4,4.8-6.2c0-18,0-36,0-54c0-3.7-1.3-5.6-4.8-6.8c-1.8-0.6-3.8-0.8-5.6-1.5
		c-0.9-0.3-1.6-1.2-2.3-1.9c0.9-0.4,1.7-0.9,2.6-1.1c0.9-0.2,1.8,0,2.7,0c8.9,0,17.8-0.1,26.7,0c1,0,2,0.8,3,1.2
		c-0.9,0.8-1.7,1.8-2.7,2.4c-0.9,0.5-2.2,0.5-3.2,0.8c-2.5,0.7-4,2.4-4,5c-0.1,6.8,0,13.6,0,20.3c0,2.2,1.1,3.2,3.4,3.2
		c11.6-0.1,23.3-0.1,34.9,0c2.5,0,3.5-1,3.5-3.4c0-6.3,0-12.5,0-18.8c0-3.3-1.8-5.3-4.7-6.3c-2-0.7-4.1-1-6.1-1.6
		c-0.7-0.2-1.2-1.1-1.8-1.7c0.7-0.4,1.4-1.1,2.2-1.2c2.7-0.1,5.5,0.2,8.2,0.2c7,0,13.9-0.2,20.9-0.2c1.2,0,2.4,0.7,3.7,1.1
		c-1,0.9-2,2.2-3.1,2.5c-6.3,1.7-6.7,2.1-6.7,8.7c0,16.8,0,33.6,0,50.4c0,6,1.3,7.6,7.1,9.1c1.4,0.3,2.8,0.6,4.1,1.1
		c0.7,0.2,1.1,0.9,1.7,1.4c-0.7,0.5-1.3,1.2-2.1,1.4c-0.8,0.2-1.8,0-2.7,0c-8.5,0-17,0-25.5,0c-0.7,0-1.5,0.2-2.1,0
		c-0.9-0.3-1.8-0.9-2.7-1.4c0.7-0.7,1.3-1.7,2.2-2.1c1.2-0.6,2.5-0.7,3.8-1.1c2.4-0.7,3.8-2.3,3.8-4.9c0-8.1,0-16.2,0-24.3
		c0-2.3-1.1-3.2-3.4-3.2c-11.6,0.1-23.3,0.1-34.9,0c-2.6,0-3.5,1.1-3.5,3.4c0,7.6-0.1,15.2,0,22.8c0.1,3.6,2.1,5.5,6.3,6.7
		c2.3,0.6,4.5,1.2,6.8,1.8C170.3,199.2,170.3,199.8,170.3,200.3"/>
	<path class="st0" d="M557.5,180.9c0.1-0.9,0.3-1.9,0.3-2.8c0-12.1,0-24.3,0-36.4c0-7.3-2.4-10.3-9.6-12.3c-0.9-0.2-1.9-0.3-2.6-0.7
		c-1-0.5-1.7-1.4-2.6-2.1c1-0.5,2-1,3-1.4c0.2-0.1,0.4,0,0.6,0c8.5,0,17,0,25.4,0.1c1,0,2,0.8,3,1.2c-0.8,0.7-1.5,1.8-2.5,2.2
		c-6.9,2.6-8.4,4.5-8.4,12.2c0,18.6,0,37.2-0.1,55.8c0,1.6-1,3.2-1.5,4.8c-1.8-0.7-4.1-0.9-5.2-2.2c-12.2-12.9-24.3-26-36.4-39.1
		c-5-5.4-10-10.8-15-16.3c-0.5-0.6-1.1-1-2.2-1.9c-0.1,1.5-0.2,2.4-0.2,3.4c0,13.8,0,27.5,0,41.3c0,6.4,1.7,8.4,7.9,9.9
		c1.6,0.4,3.2,0.6,4.7,1.3c0.7,0.3,1,1.3,1.5,2c-0.6,0.4-1.3,1-2,1.1c-1.2,0.2-2.4,0-3.6,0c-7.5,0-14.9,0-22.4,0
		c-0.8,0-1.7,0.2-2.4,0c-0.7-0.2-1.8-0.7-1.9-1.2c0-0.7,0.5-1.6,1.1-2.2c0.4-0.5,1.2-0.7,1.9-0.9c5.5-1.8,8-5.9,8.1-11.3
		c0.2-15.7,0.2-31.4,0.1-47c0-4.6-2.9-7.4-7.1-8.8c-1.9-0.6-3.9-1-5.8-1.7c-0.6-0.2-0.9-1.1-1.3-1.7c0.6-0.3,1.2-0.7,1.8-0.9
		c0.6-0.1,1.2,0,1.8,0c4.8,0,9.7,0.2,14.5-0.1c3.4-0.2,6,0.9,8.3,3.4c14.7,16.2,29.5,32.3,44.2,48.4c1.3,1.4,2.6,2.8,3.9,4.2
		C556.9,181,557.2,181,557.5,180.9"/>
	<path class="st0" d="M670,165.5c0,8.8-0.1,17.2,0,25.6c0,2.9,2.1,4.5,4.7,5.3c2.1,0.7,4.3,1.1,6.4,1.8c0.6,0.2,1,1,1.5,1.5
		c-0.6,0.4-1.2,1-1.9,1.2c-0.7,0.2-1.6,0-2.4,0c-8.9,0-17.8,0-26.7,0c-0.8,0-1.7,0.2-2.4,0c-0.6-0.2-1.4-0.7-1.5-1.2
		c-0.1-0.5,0.3-1.4,0.8-1.7c0.7-0.5,1.6-0.8,2.5-1c5.2-1.6,6.6-3.5,6.6-9c0-13,0-26.1,0-39.1c0-3.9,0-7.9,0-12.2
		c-3.1,0.5-5.7,1.1-8.4,1.4c-2.4,0.3-4.9,1.3-7.2,0.1c0-0.3,0-0.6,0-0.9c4.8-0.7,9.6-1.5,14.6-2.3c-0.6-3.4-2.9-4.5-5.5-5.3
		c-1.3-0.4-2.8-0.5-4.1-0.9c-0.6-0.2-1.3-1.1-1.3-1.7c0-0.6,0.8-1.4,1.4-1.6c1-0.3,2.2-0.2,3.3-0.2c7.8,0.1,15.6,0.3,23.3,0.1
		c2,0,4.3-1,6-2.2c2.9-2.2,5.4-4.9,8.1-7.3c0.5-0.4,1.3-0.5,1.9-0.7c-0.2,0.7-0.3,1.5-0.7,2c-2.3,2.8-4.7,5.6-6.6,7.8
		c2.7,0.2,6.5,0.4,10.4,1c5.8,0.9,11.1,3.2,14.9,8c7.2,9.2,4.1,22.1-6.5,26.9c-1.8,0.8-3.7,1.5-5.9,2.3c1.8,2.4,3.5,4.8,5.2,7.1
		c4.9,6.6,9.8,13.1,14.7,19.7c2.5,3.5,5.6,5.6,10.1,5.6c1,0,1.9,0.9,2.9,1.4c-0.8,1-1.7,2.8-2.5,2.8c-5.3,0.2-10.7,0.4-16-0.2
		c-2-0.3-4-2.6-5.4-4.5c-5.3-7.2-10.6-14.3-15.3-21.9c-3.6-5.8-8-8.8-14.9-7.7C673,165.7,671.7,165.5,670,165.5 M670,160.3
		c6.3,0,12.2,0.3,18.1-0.1c4-0.3,7.6-2.2,9.7-6c3.9-7.1,1.2-17-5.8-21c-5.3-3-11-3.8-17-3.2c-3.1,0.3-4.9,2.2-4.9,5.2
		C669.9,143.6,670,152,670,160.3"/>
	<path class="st0" d="M275.5,163.3c7.1,9.5,14.1,18.8,21.1,28.1c2.2,3,5.3,4.1,9,4.2c1,0,2,0.9,3,1.4c-0.9,1-1.7,2.8-2.6,2.8
		c-5.3,0.2-10.7,0.5-16-0.2c-2-0.2-4-2.6-5.4-4.5c-5.3-7.2-10.7-14.5-15.5-22.1c-3.5-5.5-7.7-8.6-14.4-7.5c-1.4,0.2-2.8,0-4.6,0
		c-0.1,1.1-0.2,2.1-0.2,3c0,6.7,0,13.4,0,20c0,5.1,1.6,7.1,6.5,8.4c1.7,0.4,3.4,0.7,5,1.3c0.5,0.2,0.8,1,1.3,1.5
		c-0.5,0.4-1,1-1.6,1.2c-0.6,0.2-1.4,0.1-2.1,0.1c-9.2,0-18.4,0-27.6,0c-0.6,0-1.3,0.2-1.8,0c-0.7-0.3-1.6-0.8-1.7-1.3
		c-0.1-0.6,0.6-1.4,1.1-1.9c0.3-0.3,0.9-0.4,1.4-0.6c6.7-2.3,7.3-3.2,7.3-10.3c0-15.6,0-31.2,0-46.7c0-7.5-1.7-9.5-9.1-11.2
		c-1-0.2-1.9-1.3-2.8-2c1.1-0.6,2.2-1.7,3.4-1.7c12-0.1,24-0.1,36.1-0.1c5.5,0,10.9,0.8,15.9,3.3c8.4,4.1,12.3,12.8,10,21.8
		c-1.1,4.4-3.9,7.5-7.8,9.6C281,161.1,278.4,162,275.5,163.3 M250.1,160.4c6.2,0,12.1,0.4,17.9-0.1c5.1-0.4,9.2-3,10.9-8.3
		c2.7-8.8-1.2-17.1-9.9-20c-4.2-1.4-8.9-1.7-13.4-1.9c-3.5-0.1-5.3,1.7-5.4,5.2C249.9,143.7,250.1,152.1,250.1,160.4"/>
	<path class="st0" d="M795.6,214.7v2.9H135.1c-0.1-0.9-0.1-1.8-0.2-2.9H795.6z"/>
	<path class="st0" d="M599.8,125.2c-11.1-10-12.9-12.1-12-14.8c1.1,1.3,2.2,2.5,3.2,3.7c0.5,0.6,1.1,1.2,1.6,1.8
		c6,7.3,13.1,11.4,23.1,10c6.6-0.9,13.3-0.4,20-0.7c2.4-0.1,3.3,0.8,3.2,3.1c-0.2,4.3-0.1,8.7-0.3,13c0,0.9-0.9,1.8-1.4,2.6
		c-0.6-0.7-1.7-1.3-1.8-2.1c-0.9-8.4-6.8-10.2-13.8-10.7c-2.3-0.2-4.6-0.3-7-0.2c5.7,3.5,12.3,4.2,18.7,5.9c0,0.4-0.1,0.7-0.1,1.1
		c-1.2,0-2.4,0.3-3.5,0c-6.3-1.9-12.5-4.1-18.7-5.9c-1.9-0.6-4.1-0.6-6.1-0.4c-2.1,0.3-3.2,2-3.2,4.2c0,7.3,0,14.6,0,22.6
		c6.8-0.3,13.4-0.3,19.9-1.1c1.9-0.2,3.6-2.9,5.2-4.6c0.7-0.8,0.8-2.1,1.4-3c0.5-0.6,1.5-1.1,2.2-1c0.5,0,1.1,1.1,1.2,1.8
		c0.1,1.8-0.2,3.6-0.2,5.5c0,5.6,0.2,11.1,0,16.7c0,1-1,2.1-1.5,3.1c-0.8-0.9-2-1.6-2.3-2.6c-2.6-7.5-4.4-8.8-12.4-8.8
		c-4.1,0-8.3,0-12.4,0.1c-0.2,0-0.4,0.1-0.8,0.3c-0.1,0.7-0.2,1.4-0.2,2.2c0,6.9,0,13.8,0,20.6c0,4.5,1.3,6.5,5.8,7.1
		c12.8,1.7,24.9,0.6,34.1-10.2c0.4-0.5,0.9-0.8,1.3-1.2c0.1-0.1,0.4-0.1,1.2-0.2c0.1,1.1,0.3,2.2,0.1,3.3
		c-1.7,9.4-7.8,14.7-17.5,14.7c-11.1,0.1-22.2-0.3-33.4-0.3c-3.7,0-7.5,0.4-11.2,0.3c-1.1,0-2.1-1-3.2-1.5c0.9-0.7,1.7-1.6,2.7-1.9
		c6.8-2.1,7.8-3.4,7.8-10.6c0-16.1,0-32.2,0-48.3c0-5.7-1.4-7.4-6.7-9.3c-1.6-0.5-4.2-2-4.1-2.6c0.5-2.7,3.1-1.4,4.8-1.5
		C588.6,125.1,594.1,125.2,599.8,125.2"/>
	<path class="st0" d="M793.5,126.6c0.1,0.9,0.4,1.9,0.4,2.8c0,6.4,0.1,12.7,0,19.1c0,1-0.7,1.9-1.1,2.8c-0.8-0.7-1.9-1.3-2.3-2.3
		c-1.7-3.5-2.8-7.4-4.9-10.7c-4.9-8.1-14.3-11.3-23.2-8.2c-4.6,1.6-7.7,4.5-8.3,9.5c-0.6,4.8,1.8,8.3,5.8,10.5
		c4.3,2.3,9,4.1,13.5,6.1c3.9,1.7,7.8,3.3,11.5,5.4c15.4,8.7,11.5,26.7,2.2,33.5c-3.4,2.5-7.5,4.5-11.6,5.5
		c-9.4,2.3-18.7,1.2-27.5-3c-2-1-3-2.3-3.3-4.6c-0.8-4.9-2-9.7-2.8-14.6c-0.3-1.8-1.6-4.5,1.3-5.1c2.6-0.6,2.7,2.2,3.3,3.9
		c3.5,9.5,9.1,16.9,19.5,19.4c4.5,1.1,8.9,0.4,12.9-1.8c8.3-4.4,9.2-15.5,1.6-20.8c-3.7-2.5-8-4.2-12.1-6.1c-3.8-1.7-7.7-3-11.4-4.9
		c-9.6-4.8-13.2-10.9-12.1-19.9c1-8.4,7.8-15.7,16.8-17.9c6.7-1.6,13.2-0.9,19.7,1.2c1.4,0.5,2.9,1,4.3,1.5c2.7,1,5.3,1.5,7.2-1.7
		L793.5,126.6z"/>
	<path class="st0" d="M398.4,125.4c0.3,2.2,0.6,3.4,0.6,4.5c0,6,0.1,11.9-0.1,17.9c0,1.2-0.8,2.4-1.2,3.6c-0.8-1-1.9-1.9-2.4-3.1
		c-1.6-3.3-2.7-7-4.7-10.1c-4.9-7.9-13.9-10.9-22.7-8.1c-4.6,1.5-7.8,4.2-8.6,9.2c-0.8,5.1,1.6,8.7,5.9,11c4,2.1,8.2,3.8,12.4,5.6
		c4,1.8,8,3.3,11.9,5.4c16.2,8.6,12.3,27.7,1.5,35.1c-4.5,3-9.4,4.7-14.7,5.1c-8,0.7-15.7-0.3-23-3.9c-1.9-0.9-3-2.1-3.3-4.3
		c-0.9-5.2-2-10.3-3-15.5c-0.2-0.9-0.4-1.9-0.2-2.7c0.2-0.7,0.9-1.7,1.6-1.9c0.7-0.2,1.8,0.4,2.2,1c0.7,1.1,1,2.4,1.5,3.6
		c3.6,9.2,9.2,16.4,19.4,18.7c4.6,1,9.1,0.3,13.2-2.1c7.8-4.5,8.7-15.1,1.5-20.3c-3.8-2.7-8.3-4.4-12.6-6.4c-3.7-1.7-7.5-3-11.1-4.7
		c-9.3-4.6-13.3-10.8-12.4-18.9c1.1-9.5,7.5-16.7,17.1-18.9c6.3-1.5,12.4-1,18.5,0.9c1.4,0.5,2.9,1,4.3,1.4
		C392.6,128.7,395.7,130.1,398.4,125.4"/>
	<path class="st0" d="M439.7,126.8c11.8-0.5,23.6-0.9,35.5-1.4c2.7-0.1,4.1,0.5,4.2,3.5c0.2,3.9,1,7.8,1.4,11.7
		c0.1,1.1-0.6,2.2-1,3.4c-1-0.8-2.1-1.4-2.9-2.4c-0.6-0.7-0.8-1.8-1.3-2.7c-2.1-4.7-5.6-7.2-10.9-7c-3.8,0.1-7.7,0-11.5,0.1
		c-3.7,0.1-4.8,1.1-4.8,4.7c0,17.1,0,34.2,0,51.3c0,4.2,1.7,6.5,5.9,7.8c2.1,0.7,4.3,1,6.4,1.7c0.7,0.2,1.1,1.2,1.6,1.9
		c-0.7,0.5-1.2,1.3-2,1.5c-1.2,0.3-2.4,0.1-3.6,0.1c-9.6,0-19.2,0-28.8,0c-0.9,0-1.9,0.2-2.7,0c-0.7-0.2-1.8-0.9-1.7-1.3
		c0.1-0.7,0.7-1.7,1.3-2c1.6-0.6,3.3-0.9,5-1.3c4.4-1.2,6.3-3.4,6.3-8c0.1-16.6,0.1-33.2,0-49.8c0-5.1-1.7-6.6-6.8-6.6
		c-3.6,0-7.3,0-10.9,0c-5.5,0-8.1,1.9-10,7.1c-0.7,1.9-1,3.9-1.9,5.7c-0.4,0.9-1.7,1.3-2.6,2c-0.5-1-1.4-2-1.3-2.9
		c0.8-5.5,1.8-11,2.6-16.5c0.4-2.5,2.2-2,3.7-1.9c7,0.3,13.9,0.7,20.9,1c3.3,0.1,6.7,0,10,0C439.7,126.6,439.7,126.7,439.7,126.8"/>
	<path class="st0" d="M322.8,163.4c0-8.7,0-17.4,0-26.1c0-5-1.5-6.9-6.3-8.2c-1.6-0.4-3.2-0.6-4.7-1.2c-0.7-0.3-1.1-1.2-1.7-1.8
		c0.7-0.3,1.3-0.8,2-1c0.4-0.1,0.8,0,1.2,0c9.5,0,19,0,28.5,0.1c1.1,0,2.1,0.8,3.2,1.3c-0.9,0.8-1.8,1.7-2.8,2.3
		c-0.5,0.3-1.2,0.3-1.8,0.4c-4.5,1.1-5.4,2.3-5.4,7c0,1.7,0,3.4,0,5.2c0,15.5,0,31,0,46.4c0,6.1,1.3,7.7,7.3,9.2
		c1.4,0.3,2.8,0.6,4.1,1.1c0.6,0.2,1,1,1.5,1.6c-0.6,0.4-1.2,1-1.9,1.2c-0.6,0.2-1.4,0-2.1,0c-9.1,0-18.2,0-27.3,0
		c-0.6,0-1.3,0.2-1.8,0c-0.7-0.3-1.7-0.7-1.8-1.2c-0.1-0.6,0.5-1.6,1.1-1.9c1.3-0.6,2.7-0.9,4.1-1.2c3.1-0.8,4.5-2.6,4.5-5.9
		C322.8,181.6,322.8,172.5,322.8,163.4"/>
	<path class="st0" d="M662.7,78.9c0.4,5.6,0.8,11.3,1,16.9c0.1,1.3-0.6,2.7-0.9,4c-0.8-1-1.9-1.9-2.5-3.1c-2.4-4.9-4.7-9.8-7.6-14.5
		c1.3,4.9,2.5,9.8,3.9,14.7c0.2,0.6,1.2,0.9,1.7,1.5c0.5,0.5,1,1.1,1.4,1.7c-0.6,0.4-1.2,0.9-1.8,1.3c-0.2,0.1-0.6,0.2-0.9,0.2
		c-1.3,0.2-2.7,0.3-4,0.5c0.4-1.1,0.9-2.2,1.1-3.4c0.2-0.9,0-1.8-0.2-2.7c-1.5-6.6-3-13.2-4.7-19.8c-0.3-1.1-1.4-1.9-2.2-2.8
		c-0.4-0.5-1.3-1.2-1.2-1.5c0.2-0.6,0.9-1.3,1.6-1.5c1.4-0.5,3-0.6,4.4-1.1c1.6-0.6,2.3-0.2,3,1.3c1.7,3.9,3.6,7.7,6,11.4
		c-0.2-4-0.3-8.1-0.6-12.1c-0.2-2.3,0.4-3.4,2.8-3.6c1.3-0.1,2.5-0.8,3.8-1c0.6-0.1,1.5,0.1,1.8,0.5c0.3,0.4-0.1,1.2-0.2,1.9
		c-0.2,1.4-1,2.8-0.6,4.1c1.5,6.2,3.2,12.3,5.1,18.4c0.5,1.5,2,2.7,3,4.1c0.4,0.5,0.6,1.2,1,2c-3.3,0.9-6.3,1.8-9.3,2.4
		c-0.2,0-1.3-2-1.1-2.1c2-1.7,1-3.5,0.5-5.3c-1.2-4.2-2.4-8.4-3.6-12.7C663.1,78.8,662.9,78.8,662.7,78.9"/>
	<path class="st0" d="M521.8,260.9c-5.2,3.1-8.6-0.4-11.6-2.7c-4.2,1.5-7.9,3.4-11.7,3.9c-8.4,1.1-14.8-5-14.4-13.1
		c0.2-4.7,2.7-7.7,6.6-9c-0.3-2.7-1.1-5.3-0.7-7.7c0.5-2.8,3.1-4.3,5.9-4.3c2.6-0.1,5.1,0.5,8,0.7c0.1,2,0.2,3.9,0.3,6.5
		c-0.9-1-1.3-1.4-1.7-1.9c-0.9-1-1.7-2.3-2.8-3.1c-1.9-1.5-4.2-1.9-6.1-0.1c-1.9,1.8-1.5,4,0,5.7c3.8,4.5,7.8,8.8,11.7,13.1
		c1.4,1.5,2.9,2.8,4.4,4.1c3-3.9,2-7.5-3.2-10.2h8.5c-1,3.5-2.1,7.2-3.1,11c-0.1,0.3,0.1,0.9,0.3,1
		C515.2,257.2,517.3,260.8,521.8,260.9 M507.2,256.4c-4.3-4.5-8.5-8.9-12.6-13.3c-2.6-2.8-5.1-2.6-6.8,1c-0.8,1.6-1.2,3.8-0.8,5.5
		C488.9,258.7,499.9,262.4,507.2,256.4"/>
	<path class="st0" d="M684.4,70.6c1.1,3.9,2.1,7.9,3.2,11.9l-0.9,0.5c-0.5-0.6-0.9-1.3-1.5-1.8c-0.5-0.6-1.2-1.1-1.7-1.7
		c-0.1,0.9-0.5,1.8-0.3,2.7c0.3,1.9,0.8,3.8,1.4,5.6c0.3,0.9,1.2,1.5,1.9,2.3c0.9-0.8,2-1.5,2.7-2.5c0.4-0.7,0.1-1.8,0.2-2.7
		c0.1-1,0.3-2.1,0.4-3.1c0.4-0.1,0.8-0.1,1.2-0.2c0.9,3.3,1.7,6.6,2.7,10.3c-4.9,1.4-9.5,2.8-14.3,3.9c-1.6,0.4-1.7-1-1.2-2.4
		c0.4-1.2,0.9-2.6,0.6-3.8c-1.6-6.6-3.3-13.1-5.1-19.6c-0.3-1.1-1.6-2-2.4-3c-0.4-0.5-0.9-1.1-0.9-1.7c0-0.3,0.7-1,1.2-1.1
		c4.4-1.1,8.8-2.2,13.7-3.4c0.7,3.1,1.4,6.1,2.2,9.7c-3.5-0.9-3.6-6.8-8.3-4c0.7,2.6,1.3,5.3,2.1,8c0.1,0.5,0.9,0.8,1.4,1.1
		c0.2-0.5,0.6-1,0.7-1.5c0.1-1,0-2.1,0-3.2L684.4,70.6z"/>
	<path class="st0" d="M653.2,54.4c-0.6,6.5-2.4,8.9-8.6,10.4c-1.5,0.4-2.9,0.8-4.4,1.1c-0.5,0.1-1.3,0.1-1.6-0.2
		c-0.3-0.3-0.1-1.1-0.1-1.6c0.1-1.2,0.7-2.5,0.4-3.6c-1.3-5.6-2.8-11.2-4.3-16.7c-0.2-0.8-1.1-1.5-1.8-2.2c-0.4-0.4-1.3-0.7-1.2-0.9
		c0.1-0.6,0.4-1.5,0.9-1.7c3.5-0.9,7-2.2,10.5-2.4c3.2-0.2,5.1,2.6,6.1,5.2C650.8,46,651.9,50.3,653.2,54.4 M640.1,39.4
		c-0.2,0.2-0.5,0.3-0.7,0.5c0.1,0.8,0.1,1.5,0.3,2.3c1.4,5.6,2.8,11.1,4.4,16.7c0.3,1,1.3,1.7,2,2.6c0.5-1,1.4-2.1,1.4-3.1
		c-0.1-6-1.6-11.6-4.7-16.7C642.1,40.8,641,40.2,640.1,39.4"/>
	<path class="st0" d="M660.8,58.9c0.2-1.9,0.5-3,0.4-4c-0.4-7.2-0.9-14.3-1.2-21.5c0-1,0.7-2.4,1.5-3c1.6-1.1,2.5,0.3,3.1,1.7
		c3.2,6.4,6.4,12.8,9.6,19.2c0.5,0.9,1.1,1.7,2.3,2.3c0-1-0.2-2,0.1-2.9c0.3-0.9,0.8-1.9,1.5-2.3c0.5-0.2,2,0.4,2.2,1
		c0.6,1.5,1,3.2,1.1,4.9c0,0.6-1,1.5-1.7,1.7c-2.9,0.7-5.8,1.2-8.7,1.7c-0.8,0.1-1.7-0.1-2.5-0.1c0.2-0.7,0.6-1.4,0.5-2
		c-0.4-1.7-0.6-3.6-1.6-4.8c-0.4-0.5-3.7,0.2-3.8,0.8c-0.3,1.5,0.2,3.2,0.8,4.7c0.3,0.8,1.3,1.3,2.5,2.4c-2.3,0.6-3.9,1.1-5.5,1.5
		c-0.5,0.1-1.3,0.1-1.6,0.4c-1.5,2-2.8,1.2-3.8-0.4c-1.5-2.2-1.5-5.5,0.1-6c0.8-0.3,2.1,0.3,2.8,0.9
		C659.6,55.9,659.9,57.1,660.8,58.9 M662.8,40.7c-0.2,0.1-0.4,0.2-0.6,0.3c0.2,2.3,0.4,4.7,0.7,7.3c1.2-0.4,2-0.7,3.2-1
		C664.8,44.9,663.8,42.8,662.8,40.7"/>
	<path class="st0" d="M734.9,136.6c-0.5,8.8-3.2,15-8.9,19.8c-0.7,0.6-1.5,1.2-2.3,1.4c-0.9,0.3-1.8,0.1-2.8,0.1
		c0.3-0.9,0.5-1.8,1-2.6c1.7-2.8,4.1-5.4,5-8.4c1.5-5-1-9-5-12.1c-3.7-2.9-3.7-3.5-0.6-6.8c4.5-4.8,7.8-4.6,11,1.3
		C733.8,132.1,734.4,135.1,734.9,136.6"/>
	<path class="st0" d="M619.2,61.4c0.8,1.4,1.4,3,2.3,4.3c0.7,0.9,1.9,1.4,2.8,2.1c0.4-1.2,1.6-2.8,1.2-3.5c-0.8-1.7-2.2-3.5-3.8-4.3
		c-4.4-2.2-6.4-5.9-6.7-10.4c-0.1-2,0.6-4.5,1.7-6.1c1.6-2.2,4.8-3,6.8-1.6c1.6,1.1,1.8,4.2,2.7,6.4c-0.4,0.2-0.8,0.4-1.2,0.6
		c-0.8-1-1.5-2.2-2.4-3.1c-0.6-0.6-1.4-0.8-2.2-1.2c-0.3,0.8-1,1.9-0.7,2.4c0.9,1.4,1.9,3.3,3.3,3.8c6.3,2.3,7.9,10.4,6.8,15
		c-0.7,2.8-2.4,4.7-5.4,5C619.9,71.1,617.2,67.3,619.2,61.4"/>
	<path class="st0" d="M227.4,245c1.2,0,2.3,0,3.5,0c3.8-0.1,6.3-1.6,7.2-4.4c1-3.3-0.3-7.2-3.1-9.2c-1-0.7-2.1-1.2-3.3-1.6
		c-5.1-1.4-6-0.6-6,4.6c0,5.8,0,11.5,0,17.3c0,3.9-0.8,8.3,4.7,9.9h-11.9c4.3-1.6,3.4-5.1,3.4-8.3c0-6.1,0-12.1,0-18.2
		c0-4.8,0-4.8-3.6-7.4c3.9,0,7.9-0.1,11.8,0.1c2.1,0.1,4.2,0.5,6.2,1.2c3.3,1.1,5.4,3.5,5.6,7.1c0.2,3.7-1.3,6.5-4.4,8.4
		C234.3,246.4,230.9,246.9,227.4,245"/>
	<path class="st0" d="M302,261.6c2.7-2.7,3-4.9,2.1-15.9c-3,5.7-5.6,10.7-8.7,16.4c-2.6-5.5-4.9-10.3-7.2-15.1
		c-0.3,0.1-0.5,0.1-0.8,0.2c0,3.8-0.2,7.6,0.1,11.3c0.1,1.1,1.6,2,2.6,3.1h-7.7c3.3-1.8,3-4.8,3.1-7.6c0.1-2.4,0.2-4.8,0.3-7.3
		c0.1-4.2,0-4.3-3.4-6.2c3.9-1.7,5.7-1,7.4,2.5c2.1,4.3,4.2,8.6,6.6,13.5c2.4-4.7,4.9-8.8,6.7-13.1c1.5-3.5,3.8-4.2,8-3.2
		c-4.5,1.1-3.7,4.2-3.7,6.9c0.1,2.9,0.4,5.9,0.3,8.8c0,2.4,0.4,4.4,3,5.5H302z"/>
	<path class="st0" d="M369.6,228.6c0.2,2.6,0.5,5,0.7,7.5c-0.2,0.1-0.4,0.2-0.7,0.2c-0.4-0.7-0.8-1.4-1.2-2.1
		c-2.4-4.9-8.1-6.9-13.1-4.7c-2.2,1-3.5,2.6-3.6,5.1c-0.1,2.5,1.2,4.1,3.3,4.9c3.2,1.3,6.5,2.2,9.7,3.4c3.6,1.4,6.2,3.8,6.5,7.9
		c0.3,4.4-1.5,8.3-5.8,9.6c-3.6,1.1-7.7,1.5-11.5,1.1c-4.7-0.5-6.6-4.6-5.2-10c0.5,1.1,0.8,1.9,1.1,2.7c2.5,5.8,9.5,8.1,15,5.1
		c2.5-1.4,3.9-3.5,3.8-6.4c0-2.8-1.9-4.4-4.3-5.2c-2.8-1-5.8-1.8-8.6-2.9c-5.2-2-7.2-5.2-6.5-10.2c0.6-4.2,4.4-7.4,9.4-7.3
		C362.3,227.4,365.8,228.2,369.6,228.6"/>
	<path class="st0" d="M604,75.6c-2.2,0-4.1-2-5.1-4.9c-1.6-4.8-2.7-9.7-4.2-14.5c-0.5-1.7-0.4-4-2.9-4.6c-0.1,0,0-1.9,0.3-2
		c2.1-0.7,4.2-1.3,6.4-1.7c1.7-0.3,1.7,0.7,1.2,2c-0.3,0.9-0.7,2.1-0.5,3c1.2,4.9,2.5,9.8,3.8,14.7c0.2,0.6,0.2,1.3,0.6,1.7
		c1.1,1,2.3,1.9,3.4,2.8c0.6-1.4,2-3,1.7-4.3c-1.1-5.6-2.7-11.2-4.1-16.8c-0.2-0.6-0.7-1.1-1.1-1.7c-0.5-0.7-1-1.4-1.4-2
		c1.5-0.5,3-0.9,4.5-1.3c0.1,0.8,0.1,1.7,0.2,2.5c0.1,1.5-0.1,3,0.2,4.4c1.1,5,2.6,10,3.7,15C611.8,72.4,609.3,75.6,604,75.6"/>
	<path class="st0" d="M652.1,102.1c-0.6,0.5-1.1,1-1.6,1.2c-2.3,0.7-4.7,1.3-7,1.8c-0.6,0.1-1.5-0.1-1.8-0.5
		c-0.3-0.4,0.1-1.2,0.2-1.9c0.2-1.1,0.8-2.3,0.6-3.3c-1.7-7-3.5-13.9-5.4-20.8c-0.2-0.9-1.3-1.5-2-2.3c-0.4-0.5-1.1-1-1.1-1.5
		c0-0.4,0.7-1.1,1.2-1.3c2.3-0.7,4.7-1.3,7-1.8c0.5-0.1,1.5,0.1,1.7,0.5c0.2,0.4-0.1,1.2-0.2,1.9c-0.2,1.1-0.9,2.3-0.6,3.2
		c1.6,6.8,3.4,13.5,5.3,20.2c0.3,1.1,1.6,2,2.5,2.9C651.1,100.9,651.5,101.4,652.1,102.1"/>
	<path class="st0" d="M590.7,261.4c2.7-1,2.7-3.2,2.7-5.5c-0.1-2.8,0-5.7,0-8.5c0-4.7,0-4.7-3.8-7.4c5.3,0,10.1-0.3,14.9,0.2
		c1.5,0.1,3.3,1.9,4.1,3.4c1.1,2,0,3.7-2.7,6c3.1,1,5.3,2.7,4.9,6.3c-0.3,2.9-2.4,5.1-6.3,5.5C599.9,261.8,595.3,261.4,590.7,261.4
		 M596.9,255.5c0,5,0,5.1,3.4,5.1c4.6,0,6.7-1.7,6.6-5.2c-0.1-3.3-1.7-4.5-6.4-4.5C596.9,250.9,596.9,250.9,596.9,255.5 M597,244.3
		c-0.2,3.1-0.5,5.2,3,5c3.8-0.3,5.2-1,5.3-3.5c0-3-2.2-4.9-5.7-4.9C596.2,240.8,597.1,243.3,597,244.3"/>
	<path class="st0" d="M689,261.7h-10c2.6-1.4,2.6-3.7,2.5-6.2c-0.1-3.1-0.1-6.3,0-9.4c0.1-2.6-0.2-4.8-3.1-5.7
		c4.8,0,9.7-0.2,14.5,0.1c2.4,0.2,3.9,2.1,4.2,4.6c0.4,3.2-1.6,4.8-4.8,5.8c3.4,3.4,4.5,8.3,9.4,9.7c-2.3,1.7-5.1,1.5-6.7-0.6
		c-1.5-1.9-2.9-3.9-4.2-5.9c-1.3-2.1-2.9-3.1-5.3-2.4C684.2,257.7,684.8,259.7,689,261.7 M685.1,250.5c2.4-0.3,4.2-0.3,5.9-0.7
		c2.3-0.6,2.8-2.4,2.4-4.5c-0.4-2.5-3.4-4.3-6.3-4c-2.5,0.2-2,2.1-2,3.6C685.1,246.6,685.1,248.3,685.1,250.5"/>
	<path class="st0" d="M251.5,251.9c-1,6.7-0.7,7.8,3.4,9.7h-10.8c3.6-1.2,3.7-3.4,3.6-5.8c-0.1-3.1-0.1-6.3,0-9.4
		c0-2.6,0.2-5.1-3.1-6.1c4.6,0,9.3-0.2,13.9,0.1c2.4,0.2,4.3,1.8,4.7,4.5c0.5,3.3-1.2,5.1-4.7,6.1c3.4,3.5,4.6,8.3,9.4,9.8
		c-2.3,1.7-5.1,1.5-6.7-0.6c-1.5-1.9-2.9-3.9-4.2-5.9C255.7,252.1,254.2,251.1,251.5,251.9 M251.5,250c5.7,0.7,8.1-0.4,8.2-3.6
		c0.1-3.1-2.6-5.3-6.1-5.1C251,241.5,250.6,243.2,251.5,250"/>
	<path class="st0" d="M535.9,261.2c3.5-0.9,3.5-3.5,3.5-6.3c-0.1-6.6-0.1-13.2,0-19.7c0-3,0.4-6.1-4.5-6.4c0.2-0.2,0.5-0.5,0.7-0.7
		h10.7c-4.2,1.6-3.2,5.2-3.2,8.4c0,6.6,0.1,13.2-0.1,19.7c-0.1,2.8,1.1,3.9,3.8,3.8c4.9-0.2,9.7-0.7,13.3-5c0.4,3.3-2,6.7-4.9,6.8
		c-6.3,0.2-12.7,0.1-19,0.1C536.1,261.6,536,261.4,535.9,261.2"/>
	<path class="st0" d="M468.2,240.3c-3.2,2.6-6.4,5.3-10,8.2c3.7,4.6,7.3,9,10.7,13.2c-2.5,0.5-5.1,0.4-7-2.9
		c-1.6-2.8-3.8-5.2-5.7-7.7c-3.1,2.5-2.5,8.4,1.1,10.6h-9c2.5-1.6,2.6-3.8,2.4-6.3c-0.1-3.1-0.1-6.3,0-9.4c0.1-2.4,0-4.6-2.8-5.8
		h8.5c-3.8,2.5-1.6,6.1-2.3,9.4c5.9-3.4,8.6-6.9,7.2-9.4H468.2z"/>
	<path class="st0" d="M574.5,262c-7.2-0.1-12-4.5-11.8-11c0.2-6.9,5.1-11.4,12.4-11.3c7.3,0.1,11.9,4.4,11.8,11
		C586.7,257.4,581.5,262.2,574.5,262 M583,251.1c0-7.2-5-11.6-10.8-9.8c-3.7,1.2-5.7,4.8-5.5,10.1c0.2,5.7,3.6,9.4,8.6,9.4
		C580,260.7,583.1,256.9,583,251.1"/>
	<path class="st0" d="M657,240.2h16.9v5.2c-2.2-3.2-6.1-4.9-9.2-3.4c-3.1,1.5-0.6,4.7-1.5,7c4.1,1.3,6.1,0.9,8.4-2.3v7.7
		c-1.7-3.9-4.9-3-8.3-2.7c0,2.2-0.2,4.3,0.1,6.4c0.1,0.8,1.4,2,2.3,2.1c3.5,0.5,6.9-0.1,9.5-3.3c0.1,3.4-1.3,5-4.3,5.1
		c-4.5,0.1-9.1,0-14-0.2c3.8-1.6,2.8-4.6,2.8-7.4c0-2.9-0.1-5.9,0-8.8C659.9,243.2,659.6,241.3,657,240.2"/>
	<path class="st0" d="M314.5,240.1h17v4.5c-1.4-0.9-2.7-2.3-4.3-2.7c-1.7-0.5-4.7-0.7-5.2,0.1c-1.1,2-1.1,4.6-1.6,6.9
		c4.7,1.2,6.3,0.8,8.7-2.2v7.5c-1-0.9-2-2.2-3.3-2.6c-1.4-0.5-3.1-0.1-4.9-0.1c-0.1,0.9-0.2,1.6-0.1,2.3c0.4,2.1,0.7,5.8,1.3,5.9
		c2.8,0.3,5.7-0.4,8.5-1c0.8-0.2,1.4-1,2.2-1.7c-0.1,3.1-1.4,4.8-4.1,4.9c-4.6,0.1-9.3,0-14.2-0.2c3.6-1.2,2.8-4,2.9-6.5
		c0-3.1,0-6.3,0-9.4c0-2.3,0.4-4.7-3.5-4.8C314,240.7,314.3,240.4,314.5,240.1"/>
	<path class="st0" d="M405,249.3c3.8,0.1,6.9,1.3,8.8-2.5v7.4c-1.6-3.8-4.8-3-8.3-2.8c0,2.2-0.2,4.4,0.1,6.5c0.1,0.8,1.5,1.8,2.4,2
		c3.5,0.5,6.8-0.4,9.4-3.3c-0.1,3.4-1.5,5-4.4,5.1c-4.5,0.1-9.1,0-13.9-0.2c3.9-1.8,2.7-5.1,2.8-8c0.1-2.6,0-5.3,0-7.9
		c0-2.3,0.3-4.7-2.8-5.5H416v4.9c-2.2-3-7.4-5.1-9.3-3.1C405.3,243.4,405.6,246.5,405,249.3"/>
	<path class="st0" d="M432.7,239.7c5.3,6.8,5.6,16.1,12.2,21.8h-9.6c3.1-1.5,3-3.7,1.4-5.7c-0.7-0.9-1.9-1.5-3-1.8
		c-1.3-0.3-2.8-0.1-4.2-0.1c-2.6,0-5.1,2.1-4.7,4.6c0.2,1.2,1.9,2.1,2.8,3.1h-7.4C424.2,254.6,428.4,247.2,432.7,239.7 M431.6,245.1
		c-1.3,2.5-2.4,4.5-3.7,6.9h7.1C433.9,249.6,432.9,247.6,431.6,245.1"/>
	<path class="st0" d="M390.7,261.8h-10.1c4.4-1.5,3.1-5.2,3.2-8.3c0.1-2.7,0.2-5.5-0.1-8.2c-0.1-1.2-1-3.2-1.6-3.2
		c-2.1-0.2-4.8-1.2-6.2,1.6c-0.4,0.8-0.7,1.5-1.8,2.1c0.3-1.9,0.5-3.7,0.8-5.7h21.2c0.2,1.7,0.4,3.4,0.6,5c-0.2,0.2-0.4,0.5-0.6,0.7
		c-1-3.8-3.6-4.5-6.6-3.9c-0.8,0.2-2.1,1.3-2.1,2.1c-0.2,4.5-0.3,9.1,0.1,13.6C387.6,259.1,389.5,260.3,390.7,261.8"/>
	<path class="st0" d="M638.4,261.6c3-0.9,3.4-3.1,3.2-5.8c-0.2-3.5,0.1-7.1-0.1-10.6c-0.1-1.1-0.9-3.1-1.6-3.2
		c-2.1-0.2-4.8-1.2-6.2,1.6c-0.4,0.8-0.7,1.6-1.7,2.2c0.2-1.9,0.5-3.7,0.7-5.7H654c0.2,1.6,0.4,3.2,0.7,4.9
		c-0.2,0.3-0.4,0.5-0.6,0.7c-1.2-3.5-3.5-4.3-6.5-4c-1.6,0.2-2.4,0.5-2.4,2.3c0.1,4.4-0.2,8.9,0.2,13.3c0.1,1.5,2,2.9,3,4.2H638.4z"
		/>
	<path class="st0" d="M614.5,253.5c0.6,1.3,1,2.1,1.5,2.9c1.4,2.5,3.4,4.6,6.5,4.1c1.5-0.3,3.3-1.6,3.9-3c1-2-0.7-3.4-2.4-4.2
		c-1.8-0.9-3.7-1.6-5.5-2.4c-2.5-1.2-4.1-3-3.6-6c0.6-2.9,2.4-4.9,5.3-5c2.8-0.1,5.7,0.5,8.7,0.8v6.3c-0.1,0.1-0.3,0.1-0.5,0.2
		c-0.4-0.9-0.9-1.8-1.3-2.7c-1.3-2.7-3.5-4-6.4-3.3c-1.1,0.3-2.6,1.5-2.8,2.6c-0.2,1,0.8,2.7,1.7,3.3c1.7,1.2,3.8,1.7,5.8,2.6
		c2.7,1.3,4.4,3.2,4,6.4c-0.4,2.7-2.6,5-5.7,5.5c-1.1,0.2-2.2,0.2-3.3,0.2C615.1,261.8,613.4,259.6,614.5,253.5"/>
	<path class="st0" d="M623,9.1c-0.8,0.5-1.5,1.1-2.3,1.4c-11.2,3.7-20.9,9.7-28.6,18.7c-3.2,3.7-5.7,8-8.7,12
		c-0.4,0.5-1.1,0.7-1.7,1c0-0.6-0.1-1.4,0.1-1.9c9-16.1,22.4-26.8,40.1-32.1c0.2,0,0.4,0.1,0.6,0.1L623,9.1z"/>
	<path class="st0" d="M578.4,50.6c0,0.8,0.2,1.6,0,2.3c-4.2,14-3.8,27.9,1.1,41.6c0.8,2.2,1.9,4.2,2.7,6.4c0.3,0.7,0.1,1.6,0.2,2.4
		c-0.6-0.5-1.4-0.9-1.8-1.5c-5.1-10.3-7.7-21.3-6.8-32.8c0.4-5.8,2-11.5,3.1-17.2c0.1-0.4,0.4-0.8,0.7-1.2
		C577.9,50.5,578.2,50.6,578.4,50.6"/>
	<path class="st0" d="M682.3,22.3c-0.9-0.4-1.8-0.7-2.5-1.3c-11-8.4-23.5-12.8-37.3-13.4c-2.9-0.1-5.9,0.2-8.8,0.2
		c-0.7,0-1.4-0.2-2.8-0.5C641.6,1.4,675,11.1,682.3,22.3"/>
	<path class="st0" d="M278.3,240.3c-2.4,0.8-2.5,2.5-2.5,4.5c0.1,3.7,0.1,7.5,0,11.2c-0.1,2.6,0.2,4.8,3.3,5.6h-9.2
		c3-1,2.4-3.5,2.4-5.7c0-3.4-0.2-6.9,0-10.3c0.2-2.6-0.3-4.6-3.2-5.3H278.3z"/>
	<path class="st0" d="M619.3,69.8c-1.3,1.3-2,2.6-3,2.8c-1.5,0.4-3.4-2.7-3-5.1c0.1-1,1.3-1.8,2.1-2.6
		C616.6,66.4,617.8,67.9,619.3,69.8"/>
	<path class="st0" d="M638.1,64.7c-1.3,1.4-1.9,2.7-2.9,3c-1.4,0.5-3.4-2.4-3.1-5c0.1-1,1.2-1.9,1.9-2.8
		C635.3,61.5,636.5,62.9,638.1,64.7"/>
	<path class="st0" d="M842.8,173.7c-1,0-1.6-0.6-1.6-1.7c0-0.8,0-0.8,3-2.3c10.8-5.5,18.4-15.4,18.4-23.5c0-8.6-6.1-14.8-14.8-14.8
		c-5.2,0-12,3.1-16,7.2c-1.2,1.5-1.6,1.7-2.2,1.7c-0.7,0-1.3-0.8-1.3-1.5c0-1.7,2.5-4.9,7-8.5c6-4.9,11.4-7.1,17.8-7.1
		c11.4,0,19.9,7.7,19.9,17.7c0,8.3-4.9,16.3-15.6,25.1c13.2,0,22.2,9.8,22.2,24.3c0,21.2-17.4,39.5-37.6,39.5
		c-6.9,0-14.2-2.5-18.7-6.5c-1.3-1.1-1.9-2-1.9-2.8c0-0.6,0.7-1.4,1.3-1.4c0.6,0,0.7,0,4.3,2.6c3.7,2.5,9.3,4.2,14.1,4.2
		c7.8,0,16.3-4.5,21.1-11.2c3.6-5.1,6-12.9,6-19.5c0-13.5-8.1-21.8-21-21.8c-0.9,0-1.5,0-1.9,0.2L842.8,173.7z"/>
	<path class="st0" d="M948.8,175.1c0,16.5-4,32.2-11.4,43.2c-4.8,7.4-12.3,11.5-20.5,11.5c-7,0-14.8-3.2-19.9-8.3
		c-8.8-8.9-13.2-22.3-13.2-40.5c0-17.5,5.4-35.4,14.1-46.8c5.4-7.2,12.4-11.1,19.9-11.1C936,123.3,948.8,145,948.8,175.1
		 M892.5,169.3c0,13.8,2.4,26,7.3,37.1c5.1,11.4,12.7,17.8,21.1,17.8c12.9,0,20.7-15.7,20.7-41.5c0-17.4-3.7-30.9-11.2-41.1
		c-4.6-6.3-11.1-10-17.5-10C900.6,131.6,892.5,146.4,892.5,169.3"/>
	<g>
		<path class="st0" d="M832.7,103.4l0.3,2.6l0,0.3l0,0.1c0,0.1-0.1,0.1-0.1,0.1c-0.1,0-0.2-0.1-0.4-0.5c-1.2-2.4-2.9-3.6-5-3.6
			c-1.7,0-3,0.6-4,1.7c-1,1.1-1.5,2.7-1.5,4.7c0,2.3,0.5,4.1,1.6,5.6c1.1,1.4,2.5,2.2,4.2,2.2c1,0,2-0.3,2.9-0.9
			c1-0.6,1.6-1.3,2-2.1c0.2-0.4,0.3-0.6,0.4-0.6c0.1,0,0.2,0.1,0.2,0.2l0,0.1l0,0.2l-0.2,1.3l0,0.2c0,0.2-0.2,0.4-0.5,0.6
			c-1.5,1.1-3.2,1.6-5,1.6c-2.1,0-3.8-0.7-5.1-2.1c-1.3-1.4-1.9-3.2-1.9-5.5c0-2.3,0.7-4.1,2-5.6c1.3-1.5,3-2.2,5.1-2.2
			c1.4,0,2.7,0.3,3.8,1l0.4,0.2l0.2,0.1l0.2,0.1c0,0,0.1,0,0.1-0.1c0.1-0.1,0.2-0.2,0.3-0.2C832.6,103,832.7,103.1,832.7,103.4z"/>
		<path class="st0" d="M837.5,103.8v4.4c0,0.3,0,0.5,0.1,0.6c0.1,0.1,0.2,0.1,0.5,0.1h1.5c0.7,0,1.2,0,1.6-0.1
			c0.4-0.1,0.6-0.2,0.7-0.3c0.1-0.1,0.2-0.4,0.3-0.9c0-0.2,0.1-0.3,0.3-0.3c0.1,0,0.2,0.1,0.2,0.3c0,0.1,0,0.1,0,0.2
			c-0.1,0.7-0.1,1.3-0.1,1.9c0,0.4,0,0.9,0.1,1.3c0,0.1,0,0.2,0,0.3c0,0.2-0.1,0.3-0.2,0.3c-0.1,0-0.2-0.1-0.3-0.2l-0.1-0.3
			c-0.1-0.5-0.2-0.8-0.5-1c-0.2-0.2-0.6-0.3-1.2-0.3h-2.2c-0.3,0-0.5,0-0.6,0.1c-0.1,0.1-0.2,0.2-0.2,0.4l0,0.4v4
			c0,0.6,0.1,1,0.3,1.2c0.2,0.2,0.7,0.2,1.5,0.2c2.6,0,4.2-0.6,5-1.9c0.1-0.1,0.2-0.2,0.2-0.2c0.1,0,0.2,0.1,0.2,0.3
			c0,0.5-0.2,1-0.7,1.7c-0.6,0.8-1.3,1.2-2.2,1.2c-0.2,0-0.4,0-0.8,0c-1.3-0.1-2.3-0.2-3.1-0.2c-1.2,0-2,0-2.4,0.1
			c-0.3,0.1-0.4,0.1-0.5,0.1c-0.2,0-0.3-0.1-0.3-0.2c0-0.1,0.1-0.2,0.3-0.3l0.4-0.1c0.5-0.1,0.7-0.7,0.7-1.5l0-0.7v-9.2
			c0-1-0.1-1.7-0.3-2.1c-0.2-0.4-0.6-0.5-1.2-0.5c-0.2,0-0.3-0.1-0.3-0.2c0-0.2,0.1-0.3,0.4-0.3c0.2,0,0.4,0,0.7,0.1
			c0.9,0.1,2.1,0.2,3.4,0.2c0.8,0,1.5,0,2.1,0l1.4-0.1c0.4,0,0.6,0,0.7,0c0.2,0,0.3,0,0.4,0c0.2,0,0.3,0.1,0.3,0.3
			c0,0.1,0,0.1,0,0.2c0,0.1,0,0.4-0.1,0.9l0,0.6c0,0.4-0.1,0.7-0.1,0.8c0,0.1-0.1,0.2-0.2,0.2c-0.1,0-0.2-0.1-0.2-0.3v-0.3
			c0-0.2,0-0.5-0.1-0.7c-0.1-0.3-0.4-0.5-0.8-0.7c-0.4-0.1-1.1-0.2-2.1-0.2h-1.5c-0.4,0-0.7,0.1-0.8,0.2
			C837.5,103.2,837.5,103.4,837.5,103.8z"/>
		<path class="st0" d="M848.6,114l0,0.4c0,0.9,0.1,1.4,0.2,1.5c0.2,0.2,0.6,0.2,1.5,0.2c1.2,0,2.3-0.2,3.2-0.5
			c0.9-0.3,1.5-0.7,1.7-1.3c0.1-0.2,0.2-0.3,0.3-0.3c0.1,0,0.2,0.1,0.1,0.2c0,0.5-0.2,1-0.6,1.6c-0.6,0.8-1.5,1.2-2.8,1.2
			c-0.2,0-0.5,0-0.7,0l-1.1-0.1c-0.6-0.1-1.3-0.1-2-0.1c-0.8,0-1.5,0-2,0.1c-0.2,0-0.4,0.1-0.6,0.1c-0.2,0-0.2-0.1-0.2-0.2
			c0-0.1,0.1-0.2,0.3-0.3c0.5-0.2,0.8-0.4,0.9-0.7c0.2-0.3,0.2-0.8,0.2-1.5l0-0.5v-9.7c0-1-0.4-1.5-1.1-1.7l-0.4-0.1
			c-0.2,0-0.2-0.1-0.2-0.2c0-0.2,0.1-0.2,0.3-0.2c0.2,0,0.4,0,0.6,0c0.4,0,0.9,0.1,1.5,0.1c0.6,0,1.2,0,1.6-0.1c0.2,0,0.4,0,0.4,0
			c0.2,0,0.2,0.1,0.2,0.2c0,0.2-0.1,0.3-0.3,0.3l-0.3,0.1c-0.6,0.2-0.9,0.8-0.9,1.9V114z"/>
		<path class="st0" d="M859.2,103.8v4.4c0,0.3,0,0.5,0.1,0.6c0.1,0.1,0.2,0.1,0.5,0.1h1.5c0.7,0,1.2,0,1.6-0.1
			c0.4-0.1,0.6-0.2,0.7-0.3c0.1-0.1,0.2-0.4,0.3-0.9c0-0.2,0.1-0.3,0.3-0.3c0.1,0,0.2,0.1,0.2,0.3c0,0.1,0,0.1,0,0.2
			c-0.1,0.7-0.1,1.3-0.1,1.9c0,0.4,0,0.9,0.1,1.3c0,0.1,0,0.2,0,0.3c0,0.2-0.1,0.3-0.2,0.3c-0.1,0-0.2-0.1-0.3-0.2l-0.1-0.3
			c-0.1-0.5-0.2-0.8-0.5-1c-0.2-0.2-0.6-0.3-1.2-0.3H860c-0.3,0-0.5,0-0.6,0.1c-0.1,0.1-0.2,0.2-0.2,0.4l0,0.4v4
			c0,0.6,0.1,1,0.3,1.2c0.2,0.2,0.7,0.2,1.5,0.2c2.6,0,4.2-0.6,5-1.9c0.1-0.1,0.2-0.2,0.2-0.2c0.1,0,0.2,0.1,0.2,0.3
			c0,0.5-0.2,1-0.7,1.7c-0.6,0.8-1.3,1.2-2.2,1.2c-0.2,0-0.4,0-0.8,0c-1.3-0.1-2.3-0.2-3.1-0.2c-1.2,0-2,0-2.4,0.1
			c-0.3,0.1-0.4,0.1-0.5,0.1c-0.2,0-0.3-0.1-0.3-0.2c0-0.1,0.1-0.2,0.3-0.3l0.4-0.1c0.5-0.1,0.7-0.7,0.7-1.5l0-0.7v-9.2
			c0-1-0.1-1.7-0.3-2.1c-0.2-0.4-0.6-0.5-1.2-0.5c-0.2,0-0.3-0.1-0.3-0.2c0-0.2,0.1-0.3,0.4-0.3c0.2,0,0.4,0,0.7,0.1
			c0.9,0.1,2.1,0.2,3.4,0.2c0.8,0,1.5,0,2.1,0l1.4-0.1c0.4,0,0.6,0,0.7,0c0.2,0,0.3,0,0.4,0c0.2,0,0.3,0.1,0.3,0.3
			c0,0.1,0,0.1,0,0.2c0,0.1,0,0.4-0.1,0.9l0,0.6c0,0.4-0.1,0.7-0.1,0.8c0,0.1-0.1,0.2-0.2,0.2c-0.1,0-0.2-0.1-0.2-0.3v-0.3
			c0-0.2,0-0.5-0.1-0.7c-0.1-0.3-0.4-0.5-0.8-0.7c-0.4-0.1-1.1-0.2-2.1-0.2h-1.5c-0.4,0-0.7,0.1-0.8,0.2
			C859.2,103.2,859.2,103.4,859.2,103.8z"/>
		<path class="st0" d="M868.9,113.7v-8.4c0-1-0.1-1.7-0.4-2.1s-0.7-0.7-1.2-0.7c-0.3,0-0.4-0.1-0.4-0.2c0-0.2,0.1-0.2,0.4-0.2
			c0.1,0,0.2,0,0.5,0c0.2,0,0.5,0,0.8,0c0.5,0,0.9,0,1.1,0l1.1-0.1c0.4,0,0.7,0,1,0c1.5,0,2.6,0.3,3.4,1c0.8,0.6,1.3,1.5,1.3,2.6
			c0,1.2-0.4,2-1.3,2.7l-0.4,0.3c-0.1,0.1-0.1,0.1-0.1,0.2c0,0.1,0.2,0.1,0.5,0.2c0.7,0.2,1.3,0.6,1.8,1.3c0.5,0.7,0.7,1.5,0.7,2.4
			c0,1.3-0.4,2.4-1.3,3.3c-0.9,0.9-2,1.3-3.4,1.3l-0.8,0l-0.9,0l-0.8-0.1c-0.5,0-0.9-0.1-1.3-0.1c-0.3,0-0.6,0-0.8,0
			c-0.3,0-0.5,0.1-0.7,0.1c-0.2,0-0.3-0.1-0.3-0.2c0-0.1,0.1-0.2,0.3-0.2c0.6-0.1,0.9-0.4,1-1C868.9,115.1,868.9,114.4,868.9,113.7z
			 M871,109.3c-0.2,0-0.4,0-0.5,0.1c-0.1,0-0.1,0.2-0.1,0.3v5l0,0.5l0.1,0.4c0.1,0.3,0.3,0.5,0.7,0.7s1,0.2,1.8,0.2
			c1,0,1.8-0.3,2.4-0.9c0.6-0.6,0.9-1.4,0.9-2.5c0-1.1-0.3-2-0.9-2.7c-0.6-0.7-1.4-1.1-2.4-1.1H871z M871.1,108.6h1.6
			c1.7,0,2.5-0.8,2.5-2.5c0-1-0.4-1.9-1.1-2.5c-0.7-0.7-1.6-1-2.6-1c-0.5,0-0.8,0.1-0.9,0.2c-0.1,0.1-0.2,0.4-0.2,0.9v4.4
			c0,0.3,0,0.4,0.1,0.5C870.6,108.5,870.8,108.6,871.1,108.6z"/>
		<path class="st0" d="M885.5,109.5l2.7,4.4l0.3,0.5c0.8,1.4,1.6,2.1,2.3,2.1l0.3,0c0.1,0,0.2,0.1,0.2,0.2c0,0.1-0.2,0.2-0.4,0.3
			c-0.3,0.1-0.6,0.1-1,0.1c-0.6,0-1.1-0.2-1.6-0.5c-0.5-0.4-0.9-0.9-1.4-1.8l-2.5-4.1l-0.1-0.2c-0.2-0.3-0.4-0.4-0.8-0.4h-1.3
			l-0.2,0c-0.1,0.1-0.1,0.2-0.1,0.3v3.4l0,0.4c0,0.6,0,1.1,0.1,1.3c0.1,0.2,0.2,0.4,0.4,0.6c0.3,0.2,0.7,0.4,1.3,0.5
			c0.2,0,0.4,0.1,0.4,0.2c0,0.1-0.1,0.2-0.3,0.2c-0.1,0-0.3,0-0.6,0c-0.3,0-0.7,0-1.3,0l-0.9,0l-0.5,0c-0.2,0-0.5,0-0.8,0.1
			c-0.3,0-0.4,0-0.5,0c-0.2,0-0.2-0.1-0.2-0.2c0-0.1,0.1-0.2,0.2-0.2c0.5-0.1,0.9-0.4,1-0.8c0.2-0.4,0.2-1.2,0.2-2.5v-7.8l0-1.1
			c0-1.1-0.4-1.8-1.1-1.9l-0.5-0.1c-0.2,0-0.3-0.1-0.3-0.3c0-0.1,0.1-0.2,0.3-0.2c0.1,0,0.3,0,0.7,0c0.2,0,0.5,0,0.9,0
			c0.3,0,0.8,0,1.5-0.1c0.5,0,1-0.1,1.4-0.1c1.5,0,2.7,0.3,3.4,0.9c0.8,0.6,1.2,1.6,1.2,2.8C888,107.3,887.2,108.6,885.5,109.5z
			 M882.6,109.3h1.1c0.9,0,1.5-0.3,2-0.8c0.5-0.5,0.7-1.2,0.7-2.1c0-1.1-0.3-1.9-1-2.6c-0.7-0.7-1.5-1-2.6-1c-0.4,0-0.7,0.1-0.8,0.2
			c-0.2,0.1-0.2,0.4-0.2,0.8l0,0.4v4.4c0,0.3,0,0.6,0.1,0.6C882.1,109.2,882.3,109.3,882.6,109.3z"/>
		<path class="st0" d="M900,111.3h-3.6c-0.5,0-0.8,0-0.9,0.1c-0.1,0.1-0.3,0.4-0.5,0.9l-0.6,1.6c-0.3,0.7-0.4,1.3-0.4,1.6
			c0,0.3,0.1,0.6,0.2,0.7c0.2,0.2,0.5,0.3,0.9,0.4c0.2,0,0.3,0.1,0.3,0.3c0,0.1-0.1,0.2-0.3,0.2c-0.1,0-0.2,0-0.3,0l-0.9-0.1
			c-0.3,0-0.7,0-1.1,0c-0.2,0-0.3,0-0.4,0c-0.3,0-0.5,0.1-0.6,0.1c-0.2,0-0.3-0.1-0.3-0.2c0-0.1,0.1-0.2,0.2-0.2l0.4-0.1
			c0.1,0,0.3-0.2,0.5-0.5c0.2-0.3,0.4-0.6,0.6-1l0.3-0.7l5.1-12.4c0.1-0.2,0.2-0.3,0.3-0.3s0.2,0.1,0.3,0.3l4.2,12l0.2,0.6
			c0.3,0.9,0.6,1.4,0.8,1.6c0.2,0.2,0.6,0.4,1.2,0.5c0.2,0,0.3,0.1,0.3,0.3c0,0.1-0.1,0.2-0.3,0.2c-0.1,0-0.2,0-0.4,0
			c-0.3,0-1-0.1-1.8-0.1c-0.9,0-1.5,0-1.7,0.1c-0.1,0-0.2,0-0.3,0c-0.2,0-0.3-0.1-0.3-0.2c0-0.1,0.1-0.2,0.2-0.2l0.3-0.1
			c0.3-0.1,0.5-0.3,0.5-0.7c0-0.4-0.2-1.2-0.6-2.3l-0.5-1.4c-0.1-0.4-0.2-0.6-0.3-0.7S900.4,111.3,900,111.3z M900.1,109.5l-1.6-4.3
			l-0.1-0.2c-0.1-0.2-0.2-0.4-0.3-0.4c0,0-0.1,0.1-0.2,0.2l-1.9,4.7c-0.1,0.2-0.1,0.3-0.1,0.4c0,0.2,0.2,0.3,0.5,0.3l0.3,0h3
			c0.3,0,0.5-0.1,0.5-0.3c0-0.1,0-0.1,0-0.2L900.1,109.5z"/>
		<path class="st0" d="M914.7,103.2h-2.8c-0.3,0-0.5,0-0.5,0.1c-0.1,0.1-0.1,0.3-0.1,0.6v10.7l0,0.4c0,0.8,0.5,1.4,1.3,1.5
			c0.2,0,0.3,0.1,0.3,0.2c0,0.2-0.1,0.2-0.3,0.2c-0.1,0-0.2,0-0.5-0.1c-0.1,0-0.4,0-0.9,0l-0.7,0l-0.8,0c-0.3,0-0.5,0-0.7,0
			c-0.4,0-0.6,0.1-0.7,0.1c-0.2,0-0.3-0.1-0.3-0.2c0-0.1,0.1-0.2,0.3-0.2c0.5-0.1,0.8-0.2,1-0.5c0.2-0.2,0.3-0.7,0.3-1.3v-10.8
			l0-0.3c0-0.3,0-0.4-0.1-0.5c-0.1-0.1-0.2-0.1-0.5-0.1h-2.6c-0.5,0-0.9,0.1-1.2,0.4c-0.2,0.2-0.4,0.7-0.6,1.3
			c-0.1,0.3-0.1,0.4-0.3,0.4c-0.1,0-0.2-0.1-0.2-0.3c0-0.2,0-0.4,0.1-0.8c0.1-0.5,0.1-0.9,0.1-1.3c0-0.3,0-0.6,0.1-0.7
			c0.1-0.1,0.2-0.2,0.4-0.2h10.6c0.4,0,0.6,0,0.7,0.1c0.1,0.1,0.1,0.3,0.1,0.8c0,0.4,0,0.7,0,0.9c0,0.2,0.1,0.4,0.1,0.5
			c0,0.2-0.1,0.3-0.2,0.3c-0.1,0-0.2-0.1-0.2-0.3c-0.1-0.5-0.2-0.8-0.4-1C915.6,103.3,915.2,103.2,914.7,103.2z"/>
		<path class="st0" d="M920.8,105.3v8.1c0,1,0.1,1.7,0.2,2c0.1,0.4,0.3,0.6,0.5,0.8c0.2,0.2,0.5,0.3,0.9,0.3
			c0.3,0.1,0.5,0.1,0.5,0.3c0,0.2-0.1,0.3-0.3,0.3c-0.1,0-0.2,0-0.4,0c-0.2,0-0.6,0-1,0l-1.4,0l-1.2,0.1c-0.2,0-0.4,0-0.5,0
			c-0.2,0-0.3-0.1-0.3-0.2c0-0.1,0.1-0.2,0.3-0.2c0.5-0.1,0.8-0.3,1-0.6c0.1-0.3,0.2-0.9,0.2-1.8v-9.3c0-0.9-0.1-1.5-0.3-1.8
			c-0.2-0.3-0.6-0.5-1.2-0.6c-0.2,0-0.3-0.1-0.3-0.3c0-0.2,0.1-0.2,0.3-0.2c0.1,0,0.1,0,0.2,0c0.5,0.1,1.1,0.1,1.9,0.1
			c0.5,0,0.9,0,1.3,0l0.7-0.1c0.1,0,0.2,0,0.2,0c0.2,0,0.3,0.1,0.3,0.2c0,0.1-0.1,0.2-0.3,0.3l-0.5,0.2
			C921,102.9,920.8,103.8,920.8,105.3z"/>
		<path class="st0" d="M936,106.3v9.1c0,0.8,0,1.3,0,1.5c0,0.2-0.1,0.3-0.3,0.3c-0.1,0-0.2,0-0.2-0.1l-0.2-0.3l-8.3-10.5l-0.1-0.1
			c0,0-0.1-0.1-0.1-0.1c-0.1,0-0.2,0.2-0.2,0.5v7.4l0,0.5l0,0.8c0,0.5,0.2,0.8,0.3,1c0.2,0.2,0.5,0.3,1,0.4c0.2,0,0.3,0.1,0.3,0.3
			c0,0.1-0.1,0.2-0.2,0.2c-0.1,0-0.2,0-0.3,0c-0.1,0-0.4,0-0.9-0.1l-1-0.1l-0.5,0c-0.3,0-0.5,0-0.7,0c-0.2,0-0.3,0-0.4,0
			c-0.2,0-0.3-0.1-0.3-0.2c0-0.1,0.1-0.2,0.3-0.3c0.6-0.2,0.9-0.5,1.1-0.8c0.2-0.4,0.3-0.9,0.3-1.7v-7.4c0-1.3-0.2-2.2-0.5-3
			c-0.4-0.7-0.9-1.1-1.6-1.2c-0.2,0-0.3-0.1-0.3-0.2s0.1-0.2,0.2-0.2c0,0,0.1,0,0.2,0l0.4,0l0.7,0l0.2,0c0.2,0,0.3,0,0.4,0
			c0.2,0,0.3,0.1,0.5,0.3l9.1,11.3c0.1,0.2,0.2,0.3,0.3,0.3c0.1,0,0.1-0.1,0.1-0.2v-5.4l0-1.5l-0.1-2.5c-0.1-0.6-0.2-1.1-0.5-1.3
			c-0.3-0.3-0.7-0.4-1.4-0.6c-0.2,0-0.3-0.1-0.3-0.3c0-0.1,0.1-0.2,0.3-0.2c0.1,0,0.2,0,0.4,0c0.5,0.1,1.1,0.1,1.8,0.1
			c0.4,0,0.7,0,1-0.1c0.2,0,0.4-0.1,0.5-0.1c0.2,0,0.3,0.1,0.3,0.2c0,0.1-0.1,0.2-0.2,0.2c-0.4,0.1-0.7,0.3-0.8,0.5
			c-0.1,0.3-0.2,0.7-0.2,1.4v1.2L936,106.3z"/>
		<path class="st0" d="M949.6,113.3v-2.4c0-0.4-0.1-0.7-0.3-0.9c-0.2-0.2-0.5-0.3-1.1-0.3c-0.3,0-0.4-0.1-0.4-0.3
			c0-0.1,0.1-0.2,0.3-0.2l0.4,0l0.7,0c1,0,1.6,0,1.8,0c0.5,0,0.7-0.1,0.8-0.1c0.2,0,0.2,0.1,0.2,0.2c0,0.1-0.1,0.2-0.3,0.3
			c-0.5,0.1-0.8,0.5-0.8,1.2l0,0.3v3.5l0,0.3l-0.1,0.2c0,0-0.1,0.1-0.3,0.1c-0.2,0-0.5,0.2-0.8,0.4l-0.7,0.4
			c-1.3,0.8-2.7,1.2-4.1,1.2c-2,0-3.6-0.7-4.9-2.1c-1.3-1.4-1.9-3.2-1.9-5.4c0-2.3,0.7-4.2,2-5.7c1.3-1.5,3-2.3,5-2.3
			c0.8,0,1.6,0.1,2.5,0.4c0.9,0.2,1.6,0.6,2.1,0.9c0.1,0.1,0.1,0.1,0.2,0.1c0,0,0.1,0,0.2-0.1l0.2-0.2c0,0,0.1-0.1,0.1-0.1
			c0.1,0,0.2,0.2,0.2,0.5c0,0.2,0,0.4,0.1,0.7l0.1,1c0,0.3,0.1,0.6,0.1,0.8c0,0.1,0,0.2,0,0.3c0,0.2-0.1,0.3-0.2,0.3
			c-0.1,0-0.2-0.1-0.2-0.2c-0.5-1.2-1.3-2.1-2.4-2.8c-1.1-0.7-2.2-1.1-3.4-1.1c-1.5,0-2.7,0.6-3.6,1.9c-0.9,1.2-1.4,2.8-1.4,4.8
			c0,2.1,0.5,3.9,1.6,5.3c1.1,1.4,2.4,2.1,4,2.1c1.5,0,2.7-0.6,3.6-1.8C949.5,114.5,949.6,114,949.6,113.3z"/>
	</g>
	<g>
		<path class="st0" d="M835.3,257.9c0,1.4,0.1,2.3,0.4,2.6c0.2,0.3,0.9,0.5,2.1,0.6c0.4,0,0.6,0.2,0.6,0.4c0,0.3-0.2,0.4-0.7,0.4
			c-0.1,0-0.5,0-1-0.1c-0.3,0-0.8-0.1-1.4-0.1l-1.5-0.1l-1.5,0c-0.9,0-1.6,0-1.9,0.1c-0.4,0.1-0.6,0.1-0.7,0.1
			c-0.3,0-0.4-0.1-0.4-0.3c0-0.2,0.2-0.4,0.6-0.4c1.1-0.1,1.8-0.4,2-0.8c0.3-0.4,0.4-1.3,0.4-2.6l0-0.8v-5.5c0-0.8-0.1-1.4-0.2-1.7
			c-0.1-0.4-0.4-0.9-0.8-1.6l-5.3-8.1l-0.7-1c-0.4-0.6-0.9-1-1.6-1.4c-0.7-0.4-1.3-0.5-2-0.5c-0.4,0-0.6-0.1-0.6-0.3
			c0-0.3,0.2-0.4,0.6-0.4c0.3,0,0.6,0,1,0.1c0.8,0.1,1.7,0.1,2.6,0.1c1.9,0,3.1,0,3.6-0.1c0.6-0.1,0.9-0.1,1-0.1
			c0.4,0,0.6,0.1,0.6,0.4c0,0.2-0.1,0.3-0.4,0.4c-0.9,0.2-1.3,0.7-1.3,1.3c0,0.3,0.3,0.9,0.8,1.8l0.5,0.9l4,6.1l0.2,0.4
			c0.1,0.2,0.2,0.3,0.3,0.3c0.1,0,0.3-0.1,0.4-0.3l0.2-0.3l2.8-4l0.9-1.4c0.9-1.4,1.3-2.3,1.3-2.7c0-0.8-0.8-1.4-2.4-1.8
			c-0.3-0.1-0.5-0.2-0.5-0.4c0-0.2,0.2-0.3,0.4-0.3c0.2,0,0.5,0,1,0.1c0.4,0.1,1.3,0.1,2.7,0.1c1.3,0,2.1,0,2.5-0.1
			c0.5,0,0.8-0.1,1-0.1c0.3,0,0.5,0.1,0.5,0.3c0,0.2-0.2,0.3-0.5,0.4c-1.1,0.4-2.1,1-2.8,2.1l-1.2,1.8l-4.6,6.7l-0.5,0.6
			c-0.5,0.7-0.7,1.3-0.7,1.8V257.9z"/>
		<path class="st0" d="M854.8,239.4v7.4c0,0.6,0.1,0.9,0.2,1s0.4,0.2,1,0.2h2.9c1.3,0,2.4-0.1,3.2-0.2c0.7-0.1,1.1-0.3,1.3-0.5
			c0.2-0.2,0.4-0.7,0.6-1.5c0.1-0.3,0.2-0.5,0.5-0.4c0.2,0,0.4,0.2,0.4,0.5c0,0.1,0,0.2,0,0.4c-0.1,1.2-0.2,2.3-0.2,3.2
			c0,0.7,0,1.5,0.1,2.2c0,0.2,0,0.4,0,0.5c0,0.3-0.1,0.5-0.4,0.5c-0.3,0-0.4-0.1-0.5-0.4l-0.1-0.5c-0.2-0.8-0.5-1.4-0.9-1.7
			c-0.5-0.3-1.2-0.4-2.3-0.4h-4.2c-0.6,0-1,0.1-1.3,0.2s-0.3,0.4-0.3,0.7l0,0.6v6.8c0,1,0.2,1.7,0.6,1.9c0.4,0.3,1.4,0.4,3,0.4
			c5,0,8.2-1.1,9.6-3.2c0.1-0.2,0.3-0.3,0.4-0.3c0.2,0,0.4,0.1,0.4,0.5c0,0.8-0.5,1.7-1.4,2.8c-1.1,1.3-2.5,2-4.2,2
			c-0.4,0-0.9,0-1.5-0.1c-2.4-0.2-4.4-0.3-6-0.3c-2.2,0-3.8,0.1-4.7,0.2c-0.5,0.1-0.8,0.1-1,0.1c-0.4,0-0.6-0.1-0.6-0.4
			c0-0.2,0.2-0.3,0.5-0.4l0.7-0.2c0.9-0.2,1.4-1.1,1.4-2.6l0-1.2v-15.5c0-1.8-0.2-2.9-0.6-3.5c-0.4-0.6-1.2-0.9-2.3-0.9
			c-0.4,0-0.6-0.1-0.6-0.3c0-0.3,0.3-0.5,0.9-0.5c0.3,0,0.7,0,1.3,0.1c1.8,0.2,4,0.3,6.6,0.3c1.6,0,2.9,0,4.1-0.1l2.7-0.1
			c0.8,0,1.2,0,1.4-0.1c0.3,0,0.6-0.1,0.8-0.1c0.4,0,0.6,0.2,0.6,0.5c0,0.1,0,0.2-0.1,0.4c0,0.2-0.1,0.7-0.2,1.5l-0.1,1.1
			c-0.1,0.7-0.1,1.1-0.2,1.3c-0.1,0.2-0.2,0.3-0.4,0.3c-0.2,0-0.4-0.2-0.4-0.6v-0.5c0-0.4-0.1-0.8-0.2-1.1c-0.2-0.5-0.7-0.9-1.5-1.1
			c-0.7-0.2-2.1-0.3-4.1-0.3h-3c-0.8,0-1.3,0.1-1.5,0.3C854.9,238.4,854.8,238.8,854.8,239.4z"/>
		<path class="st0" d="M886.9,252H880c-0.9,0-1.5,0.1-1.8,0.2c-0.2,0.1-0.5,0.6-0.9,1.5l-1.3,2.7c-0.6,1.2-0.8,2.2-0.8,2.8
			c0,0.6,0.1,1,0.4,1.3c0.3,0.3,0.9,0.5,1.8,0.7c0.4,0.1,0.6,0.2,0.6,0.4c0,0.2-0.2,0.3-0.5,0.3c-0.1,0-0.4,0-0.6,0l-1.8-0.1
			c-0.6,0-1.3,0-2.1,0c-0.4,0-0.7,0-0.9,0c-0.6,0.1-1,0.1-1.1,0.1c-0.3,0-0.5-0.1-0.5-0.3c0-0.2,0.1-0.3,0.3-0.4l0.7-0.2
			c0.3-0.1,0.6-0.4,1-0.9c0.4-0.5,0.8-1.1,1.1-1.6l0.6-1.2l9.8-20.9c0.2-0.4,0.4-0.6,0.6-0.6c0.2,0,0.4,0.2,0.5,0.5l8.2,20.2l0.4,1
			c0.6,1.5,1.1,2.4,1.5,2.8c0.4,0.4,1.2,0.6,2.4,0.9c0.4,0.1,0.6,0.2,0.6,0.4c0,0.2-0.2,0.3-0.5,0.3c-0.1,0-0.4,0-0.7,0
			c-0.7-0.1-1.8-0.1-3.5-0.1c-1.8,0-2.9,0-3.3,0.1c-0.3,0-0.5,0.1-0.6,0.1c-0.3,0-0.5-0.1-0.5-0.4c0-0.2,0.2-0.3,0.5-0.4l0.6-0.1
			c0.6-0.1,1-0.5,1-1.3c0-0.6-0.4-1.9-1.2-3.9l-1-2.4c-0.3-0.7-0.5-1.1-0.6-1.2C888.1,252.1,887.6,252,886.9,252z M887.1,249.1
			l-3-7.3l-0.2-0.4c-0.2-0.4-0.3-0.6-0.5-0.6c-0.1,0-0.2,0.1-0.3,0.3l-3.7,7.9c-0.2,0.3-0.2,0.6-0.2,0.7c0,0.3,0.3,0.5,0.9,0.5
			l0.5,0h5.8c0.6,0,1-0.2,1-0.5c0-0.1,0-0.2-0.1-0.4L887.1,249.1z"/>
		<path class="st0" d="M914.1,249l5.3,7.5l0.6,0.9c1.6,2.3,3.1,3.5,4.5,3.6l0.6,0c0.2,0,0.3,0.1,0.3,0.3c0,0.2-0.3,0.4-0.9,0.5
			c-0.6,0.1-1.2,0.2-1.9,0.2c-1.1,0-2.2-0.3-3.1-0.9s-1.8-1.6-2.8-3l-4.8-7l-0.3-0.4c-0.3-0.5-0.8-0.8-1.5-0.8h-2.5l-0.4,0.1
			c-0.2,0.1-0.2,0.3-0.2,0.6v5.7l0,0.7c0,1.1,0.1,1.8,0.2,2.2c0.1,0.4,0.4,0.7,0.8,1c0.5,0.4,1.4,0.7,2.5,0.8c0.5,0,0.7,0.2,0.7,0.4
			c0,0.2-0.2,0.4-0.6,0.4c-0.2,0-0.6,0-1.1-0.1c-0.5-0.1-1.3-0.1-2.4-0.1l-1.8,0l-1,0c-0.4,0-1,0-1.6,0.1c-0.5,0-0.8,0.1-1,0.1
			c-0.3,0-0.5-0.1-0.5-0.4c0-0.2,0.2-0.3,0.5-0.4c1-0.2,1.7-0.6,2-1.3s0.5-2.1,0.5-4.2v-13.2l0-1.9c0-1.9-0.7-3-2.1-3.2l-0.9-0.1
			c-0.4-0.1-0.6-0.2-0.6-0.4c0-0.3,0.2-0.4,0.6-0.4c0.1,0,0.5,0,1.3,0.1c0.5,0,1,0.1,1.7,0.1c0.6,0,1.6,0,3-0.1
			c1-0.1,1.9-0.1,2.7-0.1c2.9,0,5.1,0.5,6.6,1.6c1.5,1.1,2.2,2.6,2.2,4.7C918.8,245.4,917.2,247.5,914.1,249z M908.5,248.6h2.2
			c1.7,0,3-0.4,3.9-1.3c1-0.9,1.4-2.1,1.4-3.6c0-1.8-0.6-3.2-2-4.4c-1.3-1.1-3-1.7-5-1.7c-0.8,0-1.3,0.1-1.6,0.4
			c-0.3,0.2-0.4,0.7-0.4,1.3l0,0.6v7.5c0,0.6,0.1,0.9,0.2,1.1C907.5,248.6,907.9,248.6,908.5,248.6z"/>
		<path class="st0" d="M936.4,236.1c1.4,0,2.5,0.2,3.5,0.6l1.3,0.5c0.1,0,0.2,0.1,0.3,0.1c0.2,0,0.3-0.1,0.5-0.2l0.3-0.2
			c0,0,0.1-0.1,0.2-0.1c0.3,0,0.5,0.3,0.5,0.9c0,0.2,0.1,0.8,0.2,1.9l0.3,1.9c0.1,0.4,0.1,0.7,0.1,0.8c0,0.4-0.1,0.6-0.4,0.6
			c-0.2,0-0.4-0.3-0.6-0.9c-0.5-1.3-1.4-2.4-2.8-3.3c-1.4-0.9-3-1.3-4.7-1.3c-1.4,0-2.5,0.4-3.4,1.2c-0.9,0.8-1.4,1.7-1.4,2.9
			c0,1,0.3,1.9,0.9,2.7c0.5,0.6,1.1,1.1,1.7,1.4s2.1,0.8,4.6,1.6c4.7,1.5,7.1,3.9,7.1,7.3c0,2.3-0.9,4.2-2.6,5.6
			c-1.7,1.5-4,2.2-6.7,2.2c-1,0-2.1-0.1-3.2-0.4c-1.2-0.3-2-0.6-2.6-0.9c-0.2-0.1-0.4-0.3-0.5-0.5c-0.1-0.2-0.2-0.6-0.3-1.3
			c0-0.1-0.2-0.7-0.5-1.7c-0.3-1.1-0.5-1.9-0.5-2.3c0-0.4,0.1-0.5,0.4-0.5c0.2,0,0.4,0.3,0.6,0.9c0.5,1.5,1.4,2.8,2.9,3.8
			c1.5,1,3.1,1.5,4.8,1.5c1.8,0,3.2-0.5,4.5-1.5c1.2-1,1.8-2.2,1.8-3.6c0-1.4-0.6-2.5-1.7-3.4c-0.6-0.5-2.2-1.2-5-2
			c-2.8-0.9-4.8-1.9-6-3c-1.2-1.1-1.8-2.6-1.8-4.3c0-2,0.8-3.6,2.3-4.8C932,236.7,933.9,236.1,936.4,236.1z"/>
	</g>
</g>
</svg>
